<svg width="138" height="25" viewBox="0 0 138 25" fill="none" xmlns="http://www.w3.org/2000/svg">
<path fill-rule="evenodd" clip-rule="evenodd" d="M0.883906 24.8747C0.624627 24.8747 0.41249 24.7922 0.247494 24.6272C0.082498 24.4622 0 24.25 0 23.9908V1.00921C0 0.749932 0.082498 0.537795 0.247494 0.3728C0.41249 0.207803 0.624627 0.125305 0.883906 0.125305H17.1124C17.3717 0.125305 17.5838 0.207803 17.7488 0.3728C17.9374 0.537795 18.0317 0.749932 18.0317 1.00921V4.58019C18.0317 4.83947 17.9374 5.05161 17.7488 5.2166C17.5838 5.3816 17.3717 5.4641 17.1124 5.4641H6.2227V10.6615H16.4053C16.6646 10.6615 16.8767 10.7557 17.0417 10.9443C17.2303 11.1093 17.3246 11.3214 17.3246 11.5807V15.1163C17.3246 15.3521 17.2303 15.5642 17.0417 15.7528C16.8767 15.9178 16.6646 16.0003 16.4053 16.0003H6.2227V23.9908C6.2227 24.25 6.1402 24.4622 5.9752 24.6272C5.81021 24.7922 5.59807 24.8747 5.33879 24.8747H0.883906ZM23.1684 24.847C23.0167 24.8103 22.8859 24.737 22.776 24.6272C22.611 24.4622 22.5285 24.25 22.5285 23.9908V1.00921C22.5285 0.749932 22.611 0.537795 22.776 0.3728C22.941 0.207803 23.1532 0.125305 23.4125 0.125305H28.0795C28.3152 0.125305 28.5155 0.207803 28.6805 0.3728C28.8691 0.537795 28.9634 0.749932 28.9634 1.00921V19.5359H39.641C39.9002 19.5359 40.1124 19.6302 40.2774 19.8187C40.4659 19.9837 40.5602 20.1959 40.5602 20.4551V21.8203C34.4375 22.5578 28.6102 23.579 23.1684 24.847ZM100.013 23.8819V16.0003H110.196C110.455 16.0003 110.667 15.9178 110.832 15.7528C111.021 15.5642 111.115 15.3521 111.115 15.1163V11.5807C111.115 11.3214 111.021 11.1093 110.832 10.9443C110.667 10.7557 110.455 10.6615 110.196 10.6615H100.013V5.4641H110.903C111.162 5.4641 111.375 5.3816 111.54 5.2166C111.728 5.05161 111.822 4.83947 111.822 4.58019V1.00921C111.822 0.749932 111.728 0.537795 111.54 0.3728C111.375 0.207803 111.162 0.125305 110.903 0.125305H94.6746C94.4153 0.125305 94.2032 0.207803 94.0382 0.3728C93.8732 0.537795 93.7907 0.749932 93.7907 1.00921V22.7607C95.9089 23.1001 97.9845 23.4744 100.013 23.8819ZM88.1259 21.9499V1.00921C88.1259 0.749932 88.0434 0.537795 87.8785 0.3728C87.7135 0.207803 87.5013 0.125305 87.242 0.125305H82.5043C82.245 0.125305 82.0329 0.207803 81.8679 0.3728C81.7029 0.537795 81.6204 0.749932 81.6204 1.00921V21.246C83.8232 21.445 85.993 21.6802 88.1259 21.9499ZM75.9735 20.8203L70.1498 12.2171L77.3271 1.29206C77.4214 1.17421 77.4685 1.03278 77.4685 0.867787C77.4685 0.67922 77.386 0.514224 77.221 0.3728C77.0796 0.207803 76.9028 0.125305 76.6907 0.125305H71.8469C71.4933 0.125305 71.2223 0.219589 71.0337 0.408156C70.8451 0.573151 70.7037 0.726361 70.6094 0.867787L66.3313 7.30262L62.0886 0.867787C62.0179 0.726361 61.8882 0.573151 61.6997 0.408156C61.5111 0.219589 61.24 0.125305 60.8865 0.125305H55.7598C55.5477 0.125305 55.3709 0.207803 55.2295 0.3728C55.088 0.514224 55.0173 0.67922 55.0173 0.867787C55.0173 1.00921 55.0527 1.15064 55.1234 1.29206L62.2654 12.2525L56.6617 20.5808C59.0202 20.4976 61.407 20.4551 63.818 20.4551C63.879 20.4551 63.9401 20.4551 64.0011 20.4552L66.0838 17.3791L68.2478 20.5031C70.857 20.5598 73.4341 20.6663 75.9735 20.8203ZM50.8376 20.8721V1.00921C50.8376 0.749932 50.7551 0.537795 50.5901 0.3728C50.4251 0.207803 50.2129 0.125305 49.9537 0.125305H45.2159C44.9566 0.125305 44.7445 0.207803 44.5795 0.3728C44.4145 0.537795 44.332 0.749932 44.332 1.00921V21.4058C46.4692 21.1932 48.639 21.0148 50.8376 20.8721ZM122.931 24.6272C123.119 24.7922 123.332 24.8747 123.567 24.8747H128.164C128.423 24.8747 128.635 24.7922 128.8 24.6272C128.965 24.4622 129.047 24.25 129.047 23.9908V16.3892L137.285 1.2567C137.309 1.18599 137.321 1.12707 137.321 1.07992C137.344 1.00921 137.356 0.938498 137.356 0.867787C137.356 0.67922 137.285 0.514224 137.144 0.3728C137.003 0.207803 136.826 0.125305 136.614 0.125305H132.194C131.841 0.125305 131.558 0.219589 131.346 0.408156C131.157 0.573151 131.027 0.726361 130.957 0.867787L125.865 9.98969L120.774 0.867787C120.727 0.726361 120.597 0.573151 120.385 0.408156C120.197 0.219589 119.926 0.125305 119.572 0.125305H115.152C114.94 0.125305 114.752 0.207803 114.587 0.3728C114.445 0.514224 114.375 0.67922 114.375 0.867787C114.375 0.938498 114.386 1.00921 114.41 1.07992C114.434 1.12707 114.457 1.18599 114.481 1.2567L122.683 16.3892V23.9908C122.683 24.25 122.766 24.4622 122.931 24.6272Z" fill="#E50914"/>
</svg>
